<svg xmlns="http://www.w3.org/2000/svg" width="1400" height="360" viewBox="0 0 1400 360" role="img" aria-labelledby="title desc">
  <title id="title">Dewashish Tiwari research profile</title>
  <desc id="desc">A high-technology atmospheric science banner showing particles, climate waves, data networks, and the research themes air quality, climate extremes, and environmental health.</desc>
  <defs>
    <linearGradient id="bg" x1="0" y1="0" x2="1" y2="1"><stop offset="0" stop-color="#030B15"/><stop offset="0.55" stop-color="#09233A"/><stop offset="1" stop-color="#071A2B"/></linearGradient>
    <linearGradient id="accent" x1="0" y1="0" x2="1" y2="0"><stop offset="0" stop-color="#22D3EE"/><stop offset="0.55" stop-color="#38D9A9"/><stop offset="1" stop-color="#F59F00"/></linearGradient>
    <radialGradient id="glow"><stop offset="0" stop-color="#22D3EE" stop-opacity=".32"/><stop offset="1" stop-color="#22D3EE" stop-opacity="0"/></radialGradient>
    <pattern id="grid" width="44" height="44" patternUnits="userSpaceOnUse"><path d="M44 0H0V44" fill="none" stroke="#7DD3FC" stroke-opacity=".08"/></pattern>
  </defs>
  <rect width="1400" height="360" rx="28" fill="url(#bg)"/><rect width="1400" height="360" rx="28" fill="url(#grid)"/>
  <ellipse cx="1170" cy="40" rx="310" ry="250" fill="url(#glow)"/>
  <g opacity=".62" fill="none"><path d="M830 278c98-92 174-130 264-116 80 12 112 72 232 35" stroke="#22D3EE" stroke-width="2"/><path d="M804 305c120-95 228-119 319-80 77 33 134 41 239-1" stroke="#38D9A9" stroke-width="2"/><path d="M865 330c100-67 190-73 269-31 65 35 133 33 227-12" stroke="#F59F00" stroke-width="2"/></g>
  <g stroke="#69DBD0" stroke-opacity=".55" fill="#061A2B"><path d="M1035 76L1160 42l126 72-18 112-132 40-105-73z" fill="none"/><path d="M1035 76l132 77 119-39M1160 42l7 111-31 113m-105-73 136-40 101 73" fill="none"/><g fill="#22D3EE"><circle cx="1035" cy="76" r="5"/><circle cx="1160" cy="42" r="5"/><circle cx="1286" cy="114" r="5"/><circle cx="1268" cy="226" r="5"/><circle cx="1136" cy="266" r="5"/><circle cx="1031" cy="193" r="5"/><circle cx="1167" cy="153" r="7" fill="#38D9A9"/></g></g>
  <g opacity=".75"><circle cx="940" cy="88" r="7" fill="#F59F00"/><circle cx="982" cy="126" r="4" fill="#22D3EE"/><circle cx="916" cy="150" r="11" fill="#38D9A9" fill-opacity=".55"/><circle cx="1340" cy="78" r="8" fill="#F59F00" fill-opacity=".8"/><circle cx="1312" cy="292" r="5" fill="#22D3EE"/></g>
  <rect x="68" y="67" width="7" height="148" rx="3.5" fill="url(#accent)"/>
  <text x="102" y="126" fill="#F8FAFC" font-family="Inter,Segoe UI,Arial,sans-serif" font-size="52" font-weight="750" letter-spacing=".3">Dewashish Tiwari</text>
  <text x="104" y="174" fill="#7DD3FC" font-family="JetBrains Mono,Consolas,monospace" font-size="23">ATMOSPHERIC SCIENCE  ·  CLIMATE  ·  HEALTH</text>
  <text x="104" y="224" fill="#C7D2E0" font-family="Inter,Segoe UI,Arial,sans-serif" font-size="24">Air pollution modelling  ×  climate extremes  ×  socioeconomic vulnerability</text>
  <rect x="104" y="265" width="570" height="3" rx="1.5" fill="url(#accent)"/>
  <text x="104" y="304" fill="#94A3B8" font-family="JetBrains Mono,Consolas,monospace" font-size="17">WRF-Chem  |  Earth-system data  |  Geospatial analytics  |  Environmental justice</text>
</svg>

